<svg id="SvgjsSvg1706" width="150" height="150" xmlns="http://www.w3.org/2000/svg" version="1.1" xmlns:xlink="http://www.w3.org/1999/xlink" xmlns:svgjs="http://svgjs.com/svgjs" viewBox="-0.9 -0.9 1.8 1.8"><defs id="SvgjsDefs1707"/><rect id="SvgjsRect1708" width="1.8" height="1.8" x="-0.9" y="-0.9" fill="none" opacity="0"/><g id="SvgjsG1709" opacity="1" stroke="#000000" stroke-width="0.1" stroke-linejoin="round"><polygon id="SvgjsPolygon1710" points="-0.5222222222222223,-0.5222222222222223 0.5222222222222223,-0.5222222222222223 0.5222222222222223,0.5222222222222221 -0.5222222222222223,0.5222222222222221" fill="black" stroke="black"/></g><g id="SvgjsG1711" opacity="1" stoke-opacity="0.5" stroke-width="0" stroke-linejoin="round"><polygon id="SvgjsPolygon1712" points="-0.5277777777777778,-0.5277777777777778 -0.21296296296296297,-0.5277777777777778 -0.21296296296296297,-0.21296296296296302 -0.5277777777777778,-0.21296296296296302" fill="#fefe00" stroke="black"/><polygon id="SvgjsPolygon1713" points="-0.15740740740740738,-0.5277777777777778 0.15740740740740738,-0.5277777777777778 0.15740740740740738,-0.21296296296296302 -0.15740740740740738,-0.21296296296296302" fill="#fefe00" stroke="black"/><polygon id="SvgjsPolygon1714" points="0.21296296296296297,-0.5277777777777778 0.5277777777777778,-0.5277777777777778 0.5277777777777778,-0.21296296296296302 0.21296296296296297,-0.21296296296296302" fill="#fefe00" stroke="black"/><polygon id="SvgjsPolygon1715" points="-0.5277777777777778,-0.15740740740740744 -0.21296296296296297,-0.15740740740740744 -0.21296296296296297,0.15740740740740733 -0.5277777777777778,0.15740740740740733" fill="#fefe00" stroke="black"/><polygon id="SvgjsPolygon1716" points="-0.15740740740740738,-0.15740740740740744 0.15740740740740738,-0.15740740740740744 0.15740740740740738,0.15740740740740733 -0.15740740740740738,0.15740740740740733" fill="#fefe00" stroke="black"/><polygon id="SvgjsPolygon1717" points="0.21296296296296297,-0.15740740740740744 0.5277777777777778,-0.15740740740740744 0.5277777777777778,0.15740740740740733 0.21296296296296297,0.15740740740740733" fill="#fefe00" stroke="black"/><polygon id="SvgjsPolygon1718" points="-0.5277777777777778,0.2129629629629629 -0.21296296296296297,0.2129629629629629 -0.21296296296296297,0.5277777777777777 -0.5277777777777778,0.5277777777777777" fill="#fefe00" stroke="black"/><polygon id="SvgjsPolygon1719" points="-0.15740740740740738,0.2129629629629629 0.15740740740740738,0.2129629629629629 0.15740740740740738,0.5277777777777777 -0.15740740740740738,0.5277777777777777" fill="#fefe00" stroke="black"/><polygon id="SvgjsPolygon1720" points="0.21296296296296297,0.2129629629629629 0.5277777777777778,0.2129629629629629 0.5277777777777778,0.5277777777777777 0.21296296296296297,0.5277777777777777" fill="#fefe00" stroke="black"/></g><g id="SvgjsG1721" opacity="1" stroke-opacity="1" stroke="#000000" stroke-width="0.02" stroke-linejoin="round"><polygon id="SvgjsPolygon1722" points="0.5544061302681993,0.5440613026819923 0.5544061302681993,0.19591315453384417 0.7183908045977012,0.1839080459770115 0.7183908045977012,0.5080459770114942" fill="#0000f2" stroke="black"/><polygon id="SvgjsPolygon1723" points="0.5544061302681993,0.17445721583652612 0.5544061302681993,-0.173690932311622 0.7183908045977012,-0.16168582375478924 0.7183908045977012,0.16245210727969348" fill="#ee0000" stroke="black"/><polygon id="SvgjsPolygon1724" points="0.5544061302681993,-0.19514687100894001 0.5544061302681993,-0.5432950191570881 0.7183908045977012,-0.5072796934865901 0.7183908045977012,-0.18314176245210728" fill="#0000f2" stroke="black"/><polygon id="SvgjsPolygon1725" points="-0.5440613026819924,0.5544061302681992 -0.1959131545338442,0.5544061302681992 -0.1839080459770115,0.7183908045977012 -0.5080459770114942,0.7183908045977012" fill="#ffa100" stroke="black"/><polygon id="SvgjsPolygon1726" points="-0.17445721583652612,0.5544061302681992 0.17369093231162197,0.5544061302681992 0.16168582375478924,0.7183908045977012 -0.1624521072796935,0.7183908045977012" fill="#00d800" stroke="black"/><polygon id="SvgjsPolygon1727" points="0.19514687100894,0.5544061302681992 0.5432950191570881,0.5544061302681992 0.5072796934865901,0.7183908045977012 0.18314176245210728,0.7183908045977012" fill="#ffa100" stroke="black"/><polygon id="SvgjsPolygon1728" points="-0.5544061302681993,-0.5440613026819924 -0.5544061302681993,-0.19591315453384425 -0.7183908045977012,-0.1839080459770115 -0.7183908045977012,-0.5080459770114942" fill="#00d800" stroke="black"/><polygon id="SvgjsPolygon1729" points="-0.5544061302681993,-0.17445721583652624 -0.5544061302681993,0.17369093231162192 -0.7183908045977012,0.16168582375478924 -0.7183908045977012,-0.16245210727969345" fill="#ffa100" stroke="black"/><polygon id="SvgjsPolygon1730" points="-0.5544061302681993,0.19514687100893996 -0.5544061302681993,0.543295019157088 -0.7183908045977012,0.5072796934865901 -0.7183908045977012,0.18314176245210728" fill="#00d800" stroke="black"/><polygon id="SvgjsPolygon1731" points="0.5440613026819924,-0.5544061302681993 0.1959131545338442,-0.5544061302681993 0.1839080459770115,-0.7183908045977012 0.5080459770114942,-0.7183908045977012" fill="#ee0000" stroke="black"/><polygon id="SvgjsPolygon1732" points="0.17445721583652612,-0.5544061302681993 -0.17369093231162197,-0.5544061302681993 -0.16168582375478924,-0.7183908045977012 0.1624521072796935,-0.7183908045977012" fill="#0000f2" stroke="black"/><polygon id="SvgjsPolygon1733" points="-0.19514687100894,-0.5544061302681993 -0.5432950191570881,-0.5544061302681993 -0.5072796934865901,-0.7183908045977012 -0.18314176245210728,-0.7183908045977012" fill="#ee0000" stroke="black"/></g><g id="SvgjsG1734" opacity="1" stroke-opacity="1" stroke="#000000" stroke-width="0.04" stroke-linecap="round"><path id="SvgjsPath1735" d="M -0.3333333333333333,0.03703703703703698 L -0.037037037037037035,0.33333333333333326" fill="none" stroke-opacity="1" stroke="black"/><path id="SvgjsPath1736" d="M 5.77,0.0 L -2.88,5.0 L -2.88,-5.0 L 5.77,0.0 z" transform="translate(-0.037037037037037035,0.33333333333333326) scale(0.011000000000000001) rotate(45)" stroke-width="0" stroke-linejoin="round" style="fill: black;"/><path id="SvgjsPath1737" d="M -0.037037037037037035,0.33333333333333326 L -0.3333333333333333,0.03703703703703698" fill="none" stroke-opacity="1" stroke="black"/><path id="SvgjsPath1738" d="M 5.77,0.0 L -2.88,5.0 L -2.88,-5.0 L 5.77,0.0 z" transform="translate(-0.3333333333333333,0.03703703703703698) scale(0.011000000000000001) rotate(225)" stroke-width="0" stroke-linejoin="round" style="fill: black;"/><path id="SvgjsPath1739" d="M 0.037037037037037035,-0.33333333333333337 L 0.3333333333333333,-0.03703703703703709" fill="none" stroke-opacity="1" stroke="black"/><path id="SvgjsPath1740" d="M 5.77,0.0 L -2.88,5.0 L -2.88,-5.0 L 5.77,0.0 z" transform="translate(0.3333333333333333,-0.03703703703703709) scale(0.011000000000000001) rotate(45)" stroke-width="0" stroke-linejoin="round" style="fill: black;"/><path id="SvgjsPath1741" d="M 0.3333333333333333,-0.03703703703703709 L 0.037037037037037035,-0.33333333333333337" fill="none" stroke-opacity="1" stroke="black"/><path id="SvgjsPath1742" d="M 5.77,0.0 L -2.88,5.0 L -2.88,-5.0 L 5.77,0.0 z" transform="translate(0.037037037037037035,-0.33333333333333337) scale(0.011000000000000001) rotate(225)" stroke-width="0" stroke-linejoin="round" style="fill: black;"/></g></svg>