<svg width="200" height="200" xmlns="http://www.w3.org/2000/svg"
     xmlns:xlink="http://www.w3.org/1999/xlink" viewBox="-0.9 -0.9 1.8 1.8">
    <defs></defs>
    <rect
            width="1.8"
            height="1.8"
            x="-0.9"
            y="-0.9"
                            fill="none" opacity="0"
                        >
    </rect>
            <g opacity="1" stroke="#000000" stroke-width="0.1" stroke-linejoin="round">
                            <polygon points="-0.52222222222222,-0.52222222222222 0.52222222222222,-0.52222222222222 0.52222222222222,0.52222222222222 -0.52222222222222,0.52222222222222"
                fill="#000000" stroke="#000000"></polygon>
                    </g>
            <g stoke-opacity="0.5" stroke-width="0" stroke-linejoin="round">
                            <polygon points="-0.52777777777778,-0.52777777777778 -0.21296296296296,-0.52777777777778 -0.21296296296296,-0.21296296296296 -0.52777777777778,-0.21296296296296"
                fill="#FFFFFF" stroke="#000000"></polygon>
                            <polygon points="-0.15740740740741,-0.52777777777778 0.15740740740741,-0.52777777777778 0.15740740740741,-0.21296296296296 -0.15740740740741,-0.21296296296296"
                fill="#404040" stroke="#000000"></polygon>
                            <polygon points="0.21296296296296,-0.52777777777778 0.52777777777778,-0.52777777777778 0.52777777777778,-0.21296296296296 0.21296296296296,-0.21296296296296"
                fill="#404040" stroke="#000000"></polygon>
                            <polygon points="-0.52777777777778,-0.15740740740741 -0.21296296296296,-0.15740740740741 -0.21296296296296,0.15740740740741 -0.52777777777778,0.15740740740741"
                fill="#FFA100" stroke="#000000"></polygon>
                            <polygon points="-0.15740740740741,-0.15740740740741 0.15740740740741,-0.15740740740741 0.15740740740741,0.15740740740741 -0.15740740740741,0.15740740740741"
                fill="#FFA100" stroke="#000000"></polygon>
                            <polygon points="0.21296296296296,-0.15740740740741 0.52777777777778,-0.15740740740741 0.52777777777778,0.15740740740741 0.21296296296296,0.15740740740741"
                fill="#404040" stroke="#000000"></polygon>
                            <polygon points="-0.52777777777778,0.21296296296296 -0.21296296296296,0.21296296296296 -0.21296296296296,0.52777777777778 -0.52777777777778,0.52777777777778"
                fill="#FFA100" stroke="#000000"></polygon>
                            <polygon points="-0.15740740740741,0.21296296296296 0.15740740740741,0.21296296296296 0.15740740740741,0.52777777777778 -0.15740740740741,0.52777777777778"
                fill="#FFA100" stroke="#000000"></polygon>
                            <polygon points="0.21296296296296,0.21296296296296 0.52777777777778,0.21296296296296 0.52777777777778,0.52777777777778 0.21296296296296,0.52777777777778"
                fill="#404040" stroke="#000000"></polygon>
                    </g>
    </svg>
