<?xml version="1.0" encoding="UTF-8" standalone="no"?><!DOCTYPE svg PUBLIC "-//W3C//DTD SVG 1.1//EN" "http://www.w3.org/Graphics/SVG/1.1/DTD/svg11.dtd"><svg width="100%" height="100%" viewBox="0 0 834 834" version="1.1" xmlns="http://www.w3.org/2000/svg" xmlns:xlink="http://www.w3.org/1999/xlink" xml:space="preserve" xmlns:serif="http://www.serif.com/" style="fill-rule:evenodd;clip-rule:evenodd;stroke-linejoin:round;"><g><path d="M416.667,84.564l325.949,141.025l-325.949,181.019l-325.949,-181.019l325.949,-141.025Z" style="fill-rule:nonzero;stroke:#000;stroke-width:46.3px;"/><path d="M416.667,406.609l325.949,-181.019l-34.523,361.917l-291.426,204.656l0,-385.554Z" style="fill-rule:nonzero;stroke:#000;stroke-width:46.3px;"/><path d="M90.717,225.589l325.949,181.019l-0,385.554l-291.426,-204.656l-34.523,-361.917Z" style="fill-rule:nonzero;stroke:#000;stroke-width:46.3px;"/></g><g><path d="M416.667,70.569l90.735,39.257l-90.735,42.378l-90.735,-42.378l90.735,-39.257Z" style="fill:#fefe00;fill-rule:nonzero;"/><path d="M524.077,117.339l97.949,42.378l-90.436,45.887l-98.247,-45.887l90.735,-42.378Z" style="fill:#fefe00;fill-rule:nonzero;"/><path d="M640.085,167.856l106.058,45.887l-89.762,49.85l-106.732,-49.85l90.436,-45.887Z" style="fill:#fefe00;fill-rule:nonzero;"/><path d="M309.257,117.339l90.735,42.378l-98.247,45.887l-90.436,-45.887l97.949,-42.378Z" style="fill:#fefe00;fill-rule:nonzero;"/><path d="M416.667,167.856l98.247,45.887l-98.247,49.85l-98.247,-49.85l98.247,-45.887Z" style="fill:#fefe00;fill-rule:nonzero;"/><path d="M533.034,222.587l106.732,49.85l-97.864,54.35l-107.115,-54.35l98.247,-49.85Z" style="fill:#fefe00;fill-rule:nonzero;"/><path d="M193.248,167.856l90.436,45.887l-106.732,49.85l-89.762,-49.85l106.058,-45.887Z" style="fill:#fefe00;fill-rule:nonzero;"/><path d="M300.299,222.587l98.247,49.85l-107.115,54.35l-97.864,-54.35l106.732,-49.85Z" style="fill:#fefe00;fill-rule:nonzero;"/><path d="M416.667,282.085l107.115,54.35l-107.115,59.488l-107.115,-59.488l107.115,-54.35Z" style="fill:#fefe00;fill-rule:nonzero;"/><path d="M425.728,411.591l107.115,-59.488l-4.421,123.233l-102.694,62.495l0,-126.24Z" style="fill:#e00;fill-rule:nonzero;"/><path d="M550.604,341.798l97.864,-54.35l-8.11,120.272l-94.176,57.311l4.421,-123.233Z" style="fill:#e00;fill-rule:nonzero;"/><path d="M664.751,277.998l89.762,-49.85l-11.197,117.376l-86.675,52.746l8.11,-120.272Z" style="fill:#e00;fill-rule:nonzero;"/><path d="M425.369,558.982l102.694,-62.495l-4.071,113.464l-98.624,64.829l0,-115.798Z" style="fill:#0000f2;fill-rule:nonzero;"/><path d="M545.132,485.709l94.176,-57.311l-7.492,111.118l-90.754,59.656l4.071,-113.464Z" style="fill:#0000f2;fill-rule:nonzero;"/><path d="M655.011,418.482l86.675,-52.746l-10.377,108.785l-83.79,55.079l7.492,-111.118Z" style="fill:#0000f2;fill-rule:nonzero;"/><path d="M425.037,694.246l98.624,-64.829l-3.76,104.811l-94.863,66.619l0,-106.6Z" style="fill:#e00;fill-rule:nonzero;"/><path d="M540.089,618.27l90.754,-59.656l-6.943,102.97l-87.571,61.498l3.76,-104.811Z" style="fill:#e00;fill-rule:nonzero;"/><path d="M646.006,548.325l83.79,-55.079l-9.644,101.104l-81.089,56.945l6.943,-102.97Z" style="fill:#e00;fill-rule:nonzero;"/><path d="M78.548,228.404l89.762,49.85l8.11,120.272l-86.675,-52.746l-11.197,-117.376Z" style="fill:#0000f2;fill-rule:nonzero;"/><path d="M184.539,287.709l97.864,54.35l4.421,123.233l-94.176,-57.311l-8.11,-120.272Z" style="fill:#0000f2;fill-rule:nonzero;"/><path d="M300.1,352.369l107.115,59.488l0,126.24l-102.694,-62.495l-4.421,-123.233Z" style="fill:#0000f2;fill-rule:nonzero;"/><path d="M91.393,365.941l86.675,52.746l7.492,111.118l-83.79,-55.079l-10.377,-108.785Z" style="fill:#ffa100;fill-rule:nonzero;"/><path d="M193.724,428.605l94.176,57.311l4.071,113.464l-90.754,-59.656l-7.492,-111.118Z" style="fill:#ffa100;fill-rule:nonzero;"/><path d="M304.911,496.693l102.694,62.495l0,115.798l-98.624,-64.829l-4.071,-113.464Z" style="fill:#ffa100;fill-rule:nonzero;"/><path d="M103.299,493.411l83.79,55.079l6.943,102.97l-81.089,-56.945l-9.644,-101.104Z" style="fill:#0000f2;fill-rule:nonzero;"/><path d="M202.209,558.776l90.754,59.656l3.76,104.811l-87.571,-61.498l-6.943,-102.97Z" style="fill:#0000f2;fill-rule:nonzero;"/><path d="M309.341,629.574l98.624,64.829l0,106.6l-94.863,-66.619l-3.76,-104.811Z" style="fill:#0000f2;fill-rule:nonzero;"/></g><path d="M542.062,521.613l74.605,-38.28l-14.139,82.652l-60.466,-44.372Z"/><path d="M241.667,512.5c0,0 14.002,19.46 31.492,39.991c14.718,17.278 31.907,35.315 45.3,43.151c29.058,17.003 65.392,32.96 99.051,32.248c33.786,-0.714 72.386,-19.807 103.667,-36.532c17.603,-9.412 40.846,-35.482 59.992,-59.653" style="fill:none;stroke:#000;stroke-width:25px;stroke-linecap:round;stroke-miterlimit:1.5;"/></svg>